<svg xmlns="http://www.w3.org/2000/svg" xmlns:xlink="http://www.w3.org/1999/xlink" width="103.06" height="98.114" viewBox="0 0 103.06 98.114"><defs><style>.a{fill:#e0e0e0}.b,.k{opacity:.5}.c{fill:url(#a)}.d{fill:#fafafa}.e{fill:url(#b)}.f{fill:url(#c)}.g,.k{fill:#c2c2c2}.h{fill:url(#d)}.i{fill:#fff}.j{fill:url(#f)}</style><linearGradient id="a" x1=".509" x2=".509" y1=".997" y2="-.003" gradientUnits="objectBoundingBox"><stop offset="0" stop-color="gray" stop-opacity=".251"/><stop offset=".54" stop-color="gray" stop-opacity=".122"/><stop offset="1" stop-color="gray" stop-opacity=".102"/></linearGradient><linearGradient id="b" x1=".813" x2=".813" y1=".841" y2="-.159" xlink:href="#a"/><linearGradient id="c" x1="1.78" x2="1.78" y1=".849" y2="-.151" xlink:href="#a"/><linearGradient id="d" x1=".5" x2=".5" y1="1" y2="0" xlink:href="#a"/><linearGradient id="f" x1=".5" x2=".5" y1=".999" y2="-.001" xlink:href="#a"/></defs><rect width="54.914" height="75.874" class="a" transform="matrix(0.978, -0.21, 0.21, 0.978, 8.686, 17.025)"/><g class="b" transform="translate(9.863 6.954)"><rect width="53.059" height="73.309" class="c" transform="matrix(0.978, -0.21, 0.21, 0.978, 0, 11.131)"/></g><rect width="51.708" height="71.69" class="d" transform="matrix(0.978, -0.21, 0.21, 0.978, 10.636, 18.471)"/><rect width="25.652" height="6.214" class="e" transform="matrix(0.978, -0.21, 0.21, 0.978, 22.788, 12.685)"/><path d="M441.307,91.352a3.672,3.672,0,1,0,4.272,2.837A3.629,3.629,0,0,0,441.307,91.352Zm1.215,5.667a2.119,2.119,0,1,1,1.578-2.513,2.093,2.093,0,0,1-1.578,2.513Z" class="f" transform="translate(-407.253 -87.292)"/><rect width="25.111" height="5.94" class="g" transform="matrix(0.978, -0.21, 0.21, 0.978, 22.996, 12.367)"/><path d="M441.629,91.351a3.51,3.51,0,1,0,4.168,2.7A3.51,3.51,0,0,0,441.629,91.351Zm1.161,5.416a2.026,2.026,0,1,1,1.556-2.405A2.026,2.026,0,0,1,442.79,96.767Z" class="g" transform="translate(-407.575 -87.291)"/><rect width="54.914" height="75.874" class="a" transform="translate(32.406 14.691)"/><g class="b" transform="translate(33.334 15.973)"><rect width="53.059" height="73.309" class="h"/></g><rect width="51.708" height="71.69" class="i" transform="translate(34.009 16.514)"/><rect width="25.652" height="6.214" class="h" transform="translate(47.105 13.405)"/><path d="M641.906,118a3.673,3.673,0,1,0,3.586,3.672A3.63,3.63,0,0,0,641.906,118Zm0,5.79a2.119,2.119,0,1,1,2.068-2.119,2.093,2.093,0,0,1-2.068,2.109Z" class="j" transform="translate(-581.976 -110.66)"/><rect width="25.111" height="5.94" class="g" transform="translate(47.375 13.139)"/><path d="M642.44,118a3.51,3.51,0,1,0,3.51,3.51A3.51,3.51,0,0,0,642.44,118Zm0,5.535a2.027,2.027,0,1,0,0-.006Z" class="g" transform="translate(-582.509 -110.66)"/><g class="b" transform="translate(0.816 92.615)"><rect width=".472" height="2.68" class="g" transform="translate(1.103)"/><rect width=".472" height="2.68" class="g" transform="translate(2.68 1.105) rotate(90)"/></g><g class="b" transform="translate(55.629)"><rect width=".472" height="2.68" class="g" transform="translate(1.103)"/><rect width=".472" height="2.68" class="g" transform="translate(2.68 1.103) rotate(90)"/></g><path d="M947.527,824.693a.579.579,0,0,1-.323-.7.278.278,0,0,0,.013-.064h0a.29.29,0,0,0-.522-.192h0a.293.293,0,0,0-.033.057.579.579,0,0,1-.7.323.278.278,0,0,0-.064-.013h0a.29.29,0,0,0-.192.521h0a.281.281,0,0,0,.057.033.579.579,0,0,1,.323.7.271.271,0,0,0-.013.064h0a.29.29,0,0,0,.521.192h0a.274.274,0,0,0,.033-.057.579.579,0,0,1,.7-.323.278.278,0,0,0,.064.013h0a.29.29,0,0,0,.192-.522h0A.274.274,0,0,0,947.527,824.693Z" class="k" transform="translate(-850.636 -727.615)"/><path d="M313.117,619.633a.579.579,0,0,1-.323-.7.277.277,0,0,0,.013-.064h0a.29.29,0,0,0-.521-.192h0a.277.277,0,0,0-.033.056.579.579,0,0,1-.7.323.287.287,0,0,0-.064-.013h0a.29.29,0,0,0-.192.522h0a.285.285,0,0,0,.057.033.579.579,0,0,1,.323.7.282.282,0,0,0-.013.064h0a.29.29,0,0,0,.521.192h0a.278.278,0,0,0,.033-.057.579.579,0,0,1,.7-.323.279.279,0,0,0,.064.012h0a.29.29,0,0,0,.192-.521h0A.276.276,0,0,0,313.117,619.633Z" class="k" transform="translate(-295.944 -548.323)"/><path d="M841.527,120.313a.579.579,0,0,1-.323-.7.279.279,0,0,0,.012-.064h0a.29.29,0,0,0-.521-.192h0a.274.274,0,0,0-.033.057.579.579,0,0,1-.7.323.282.282,0,0,0-.064-.013h0a.29.29,0,0,0-.192.521h0a.279.279,0,0,0,.057.033.579.579,0,0,1,.323.7.28.28,0,0,0-.013.064h0a.29.29,0,0,0,.521.192h0a.281.281,0,0,0,.033-.057.579.579,0,0,1,.7-.323.279.279,0,0,0,.064.013h0a.29.29,0,0,0,.192-.521h0A.279.279,0,0,0,841.527,120.313Z" class="k" transform="translate(-757.955 -111.745)"/><ellipse cx=".946" cy=".946" class="k" rx=".946" ry=".946" transform="translate(101.167 38.569)"/><ellipse cx=".946" cy=".946" class="k" rx=".946" ry=".946" transform="translate(28.047 92.875)"/><ellipse cx=".946" cy=".946" class="k" rx=".946" ry=".946" transform="translate(91.45 59.021)"/><ellipse cx=".946" cy=".946" class="k" rx=".946" ry=".946" transform="translate(10.004 11.161)"/><ellipse cx=".946" cy=".946" class="k" rx=".946" ry=".946" transform="translate(0 36.972)"/></svg>