<?xml version="1.0" standalone="no"?>
<!DOCTYPE svg PUBLIC "-//W3C//DTD SVG 20010904//EN"
 "http://www.w3.org/TR/2001/REC-SVG-20010904/DTD/svg10.dtd">
<svg version="1.0" xmlns="http://www.w3.org/2000/svg"
 width="360.000000pt" height="241.000000pt" viewBox="0 0 360.000000 241.000000"
 preserveAspectRatio="xMidYMid meet">

<g transform="translate(0.000000,241.000000) scale(0.100000,-0.100000)"
fill="#000000" stroke="none">
<path d="M698 2159 c-68 -35 -87 -113 -47 -191 11 -22 17 -43 12 -47 -5 -3
-15 -20 -22 -38 -10 -24 -24 -36 -56 -49 -24 -9 -62 -34 -84 -55 -73 -70 -145
-245 -140 -338 1 -25 -1 -54 -6 -64 -4 -11 -3 -23 4 -30 6 -6 11 -27 11 -48 0
-42 17 -98 36 -119 12 -12 20 -8 59 34 50 55 61 56 142 6 26 -16 91 -43 143
-60 90 -29 95 -30 108 -13 29 41 27 63 -13 97 -33 29 -35 34 -19 38 11 3 26 9
36 13 12 5 18 0 22 -22 4 -15 26 -53 49 -84 45 -60 117 -128 117 -111 0 6 -5
14 -11 18 -8 4 -7 9 2 15 10 6 9 12 -6 28 -22 25 -34 19 -15 -6 9 -11 5 -9 -9
3 -26 24 -21 44 10 44 10 0 19 6 19 13 -1 35 -50 213 -75 272 -7 17 -17 71
-23 120 -12 116 -31 156 -93 197 -34 21 -46 35 -39 42 17 17 11 36 -12 36 -54
0 -134 84 -109 113 5 7 11 28 13 47 3 31 6 35 28 32 33 -5 51 -22 23 -22 -11
0 -24 -7 -27 -16 -5 -13 -2 -14 11 -8 10 4 28 8 40 8 16 1 21 6 18 16 -3 11 2
15 20 15 24 0 24 0 4 -21 -24 -25 -25 -62 -1 -81 15 -13 15 -14 -11 -10 -33 5
-46 -9 -17 -18 24 -7 63 3 55 15 -3 4 2 27 10 50 8 23 12 46 9 51 -3 5 0 9 6
9 8 0 9 11 5 33 -7 37 -65 97 -94 97 -11 0 -25 2 -33 5 -7 2 -30 -5 -50 -16z
m159 -145 c-3 -3 -12 -4 -19 -1 -8 3 -5 6 6 6 11 1 17 -2 13 -5z m-17 -44 c0
-5 -4 -10 -10 -10 -5 0 -10 5 -10 10 0 6 5 10 10 10 6 0 10 -4 10 -10z"/>
<path d="M2465 2153 c-64 -14 -115 -57 -115 -97 0 -8 -8 -20 -17 -26 -17 -10
-17 -12 4 -26 l21 -15 -29 -30 c-49 -50 -29 -104 40 -111 l39 -3 -24 28 c-13
16 -24 32 -25 35 0 4 -2 18 -4 32 -2 20 4 30 26 42 16 10 39 33 50 53 14 23
27 34 36 31 8 -3 19 -6 24 -6 5 0 9 -13 9 -30 0 -28 -3 -30 -35 -30 -19 0 -35
-4 -35 -8 0 -5 12 -7 28 -5 39 5 49 -6 54 -64 4 -46 2 -53 -18 -63 -30 -17
-42 -90 -14 -90 15 0 60 61 60 81 0 15 7 19 36 19 20 0 52 9 70 21 29 18 33
24 28 52 -3 18 -9 41 -14 52 -4 11 -11 28 -14 38 -3 9 -16 21 -29 26 -13 5
-34 26 -45 45 -19 31 -58 59 -80 55 -4 -1 -16 -3 -27 -6z"/>
<path d="M760 1994 c0 -17 22 -14 28 4 2 7 -3 12 -12 12 -9 0 -16 -7 -16 -16z"/>
<path d="M2450 1965 c0 -8 5 -15 10 -15 6 0 10 7 10 15 0 8 -4 15 -10 15 -5 0
-10 -7 -10 -15z"/>
<path d="M2366 1961 c-4 -5 -2 -12 3 -15 5 -4 12 -2 15 3 4 5 2 12 -3 15 -5 4
-12 2 -15 -3z"/>
<path d="M2403 1940 c1 -16 5 -30 10 -30 11 0 9 48 -3 55 -5 3 -8 -7 -7 -25z"/>
<path d="M2415 1881 c-10 -18 17 -23 33 -7 15 15 15 16 -5 16 -12 0 -24 -4
-28 -9z"/>
<path d="M2601 1741 c-18 -33 -53 -81 -77 -108 -36 -40 -45 -45 -54 -33 -17
25 -40 111 -40 152 0 26 -4 38 -14 38 -26 0 -74 -50 -81 -83 -4 -17 -19 -54
-32 -82 -50 -97 -50 -99 -43 -156 7 -51 0 -79 -20 -79 -4 0 -11 42 -15 93 -4
50 -12 103 -16 116 -6 15 -6 28 1 36 9 11 7 12 -9 8 -12 -3 -21 -12 -21 -19 0
-12 -38 -14 -209 -14 -133 0 -212 -4 -216 -10 -6 -10 7 -180 21 -274 l6 -39
-155 6 c-86 3 -183 3 -216 0 -59 -6 -61 -7 -61 -34 0 -26 3 -29 35 -29 l35 0
0 -425 c0 -234 -3 -425 -7 -425 -5 0 -18 16 -31 35 -25 39 -46 44 -62 15 -14
-27 -29 -25 -40 4 -5 13 -14 27 -19 31 -24 14 -10 33 29 40 58 10 52 29 -6 21
-26 -3 -55 -6 -64 -6 -13 0 -16 -6 -13 -23 3 -13 0 -58 -6 -101 -8 -58 -8 -82
0 -92 13 -16 95 -19 101 -5 2 5 29 0 61 -11 49 -17 69 -19 125 -12 57 8 67 12
67 29 0 15 -12 24 -42 35 l-43 14 0 438 0 438 145 0 c109 0 145 -3 146 -12 1
-7 2 -222 3 -478 l1 -465 23 -3 22 -3 0 481 0 481 405 -1 c405 -2 405 -2 417
-23 16 -30 27 -96 17 -102 -4 -3 -45 9 -91 26 -108 40 -165 41 -238 4 -30 -15
-57 -29 -59 -31 -2 -2 4 -20 14 -40 25 -53 15 -114 -39 -231 -45 -98 -63 -116
-91 -93 -12 10 -15 9 -15 -6 0 -31 -63 -145 -107 -194 -47 -53 -69 -98 -54
-113 14 -14 111 22 142 53 15 14 32 24 38 22 18 -6 54 85 48 122 -8 55 19 152
61 219 49 78 62 118 59 185 -2 48 1 56 26 78 15 13 38 24 50 24 57 -1 73 -55
37 -123 -25 -46 -25 -44 3 -51 27 -7 64 -53 89 -115 l19 -46 -5 53 c-3 30 -16
73 -30 98 -30 53 -23 60 51 50 57 -8 77 -8 166 0 l67 6 0 -366 0 -366 25 0 25
0 0 480 0 480 150 0 150 0 0 -480 c0 -473 0 -480 20 -480 20 0 20 7 20 480 l0
480 35 0 c32 0 35 2 35 30 l0 30 -210 0 c-198 0 -210 1 -201 18 5 9 16 42 25
72 l16 55 -37 -39 c-20 -22 -59 -54 -87 -73 -49 -32 -54 -33 -154 -33 -66 0
-101 4 -97 10 3 6 33 10 66 10 l60 0 83 86 c81 84 86 87 120 81 20 -3 36 -3
36 1 0 4 -25 68 -54 142 -58 146 -73 164 -141 174 l-40 6 -34 -59z m-601 -266
c27 -33 -17 -74 -48 -43 -16 16 -15 23 4 42 19 20 28 20 44 1z m430 -94 c0
-14 -6 -40 -12 -58 -12 -32 -15 -34 -48 -28 -19 4 -36 8 -38 10 -2 2 11 30 27
64 29 56 33 60 51 49 11 -7 20 -24 20 -37z m108 12 c-10 -2 -18 -11 -18 -18 0
-7 8 -16 18 -19 10 -3 6 -4 -8 -3 -18 1 -26 9 -28 25 -3 18 1 22 25 21 17 -1
21 -3 11 -6z"/>
<path d="M2097 1749 c7 -7 15 -10 18 -7 3 3 -2 9 -12 12 -14 6 -15 5 -6 -5z"/>
<path d="M2503 1742 c-14 -4 -20 -12 -15 -19 5 -8 17 -6 42 8 36 19 21 25 -27
11z"/>
<path d="M1511 1598 c-3 -77 1 -138 9 -133 9 6 7 141 -2 150 -3 3 -6 -4 -7
-17z"/>
<path d="M1456 1565 c-4 -14 -2 -35 5 -46 6 -11 8 -27 5 -35 -3 -8 -1 -14 4
-14 4 0 8 27 7 60 -2 63 -11 77 -21 35z"/>
<path d="M2085 1085 c-3 -8 -7 -21 -9 -27 -2 -7 0 -23 5 -35 7 -18 16 -23 46
-23 34 0 39 3 49 33 6 17 14 40 19 50 6 15 1 17 -49 17 -42 0 -58 -4 -61 -15z"/>
<path d="M1010 1061 c13 -25 13 -44 0 -36 -5 3 -10 -2 -11 -12 0 -16 -1 -16
-9 2 -9 20 -9 20 -15 -2 -6 -18 -11 -20 -32 -12 -40 15 -53 11 -53 -16 l0 -25
100 0 c102 0 132 13 59 25 -32 6 -37 9 -26 18 24 20 27 44 8 61 -24 22 -34 20
-21 -3z"/>
<path d="M425 1019 c-12 -52 6 -60 126 -56 75 2 97 5 79 12 -13 5 -54 23 -90
42 -84 42 -106 43 -115 2z"/>
<path d="M2541 774 c0 -11 3 -14 6 -6 3 7 2 16 -1 19 -3 4 -6 -2 -5 -13z"/>
<path d="M2420 624 c0 -93 -4 -134 -12 -141 -7 -5 -38 -20 -68 -32 -150 -62
-171 -73 -165 -92 3 -9 1 -20 -5 -24 -17 -10 -11 -54 8 -64 30 -16 65 14 57
48 -6 27 -3 29 87 63 51 20 95 34 96 32 8 -6 7 -76 0 -80 -16 -10 -8 -53 11
-64 31 -16 51 -12 63 15 9 19 9 28 0 37 -15 15 -16 98 -1 98 28 0 49 -22 49
-53 0 -39 21 -72 60 -92 50 -26 60 -20 60 30 0 33 4 45 15 45 11 0 13 -7 9
-29 -7 -36 27 -66 58 -50 19 10 25 54 8 64 -6 4 -8 15 -5 25 4 13 -5 22 -44
39 -43 18 -53 28 -75 77 -14 31 -26 66 -26 77 0 11 -5 35 -12 52 -10 31 -12
32 -37 19 -14 -8 -34 -11 -43 -8 -22 6 -23 -5 -4 -31 21 -30 31 -105 14 -105
-32 1 -39 17 -38 91 2 66 -1 80 -29 129 l-31 55 0 -131z"/>
<path d="M788 513 c-39 -3 -47 -8 -50 -25 -2 -17 -27 -31 -113 -68 -67 -28
-110 -51 -111 -60 0 -8 -4 -23 -8 -32 -13 -29 -3 -53 25 -56 34 -4 54 20 40
47 -10 18 -4 22 69 50 44 17 82 31 86 31 3 0 3 -35 -1 -77 -6 -74 -5 -79 20
-105 32 -34 70 -45 91 -27 14 12 16 28 10 111 -4 54 -6 98 -4 98 2 0 37 -13
78 -28 69 -26 75 -30 72 -54 -3 -34 32 -62 60 -47 19 10 25 44 8 54 -5 3 -10
16 -10 28 0 18 -17 29 -97 64 -71 30 -101 38 -112 31 -21 -13 -71 6 -71 27 0
11 11 15 40 15 29 0 40 4 40 15 0 8 -3 14 -7 13 -5 -1 -29 -3 -55 -5z"/>
</g>
</svg>
