<svg xmlns="http://www.w3.org/2000/svg" viewBox="0 0 500 500"><g id="freepik--background-complete--inject-81"><path d="M415.59,336.33l14-.28,6.89-.11c2.29-.05,4.57,0,6.86-.06l-.45.45-.05-11.72.5.5L429.45,325c-4.62,0-9.24-.11-13.86-.16l.27-.27c0,1.92-.09,3.85-.13,5.8Zm0,0-.15-5.8c0-2-.11-3.93-.13-5.92v-.27h.28c4.62-.06,9.24-.16,13.86-.17l13.87-.06h.5v.5l-.06,11.72v.45h-.44c-2.34,0-4.68,0-7,0l-7-.11Z" style="fill:#ebebeb"></path><path d="M431.06,351.1l14-.27,6.89-.12c2.29,0,4.57,0,6.86,0l-.45.44,0-11.71.5.49-13.87-.06c-4.62,0-9.24-.11-13.86-.16l.27-.27c0,1.91-.09,3.84-.13,5.8Zm0,0-.15-5.8c0-1.95-.11-3.93-.13-5.91v-.27h.28c4.62-.05,9.24-.16,13.86-.16l13.87-.06h.5v.51l-.05,11.71v.45h-.44c-2.34,0-4.68,0-7-.06l-7-.11Z" style="fill:#ebebeb"></path><path d="M115.68,196.36l14-.28,6.89-.11c2.29,0,4.57,0,6.86-.05l-.45.44-.05-11.72.5.5-13.87-.06c-4.62,0-9.24-.11-13.86-.16l.27-.28c0,1.92-.09,3.85-.13,5.8Zm0,0-.14-5.8c-.05-1.95-.12-3.93-.14-5.92v-.27h.28c4.62-.05,9.24-.16,13.86-.16l13.87-.07h.5v.5l0,11.72v.45h-.44c-2.34,0-4.68,0-7-.06l-7-.11Z" style="fill:#ebebeb"></path><path d="M131.4,211.14l14-.28,6.89-.11c2.29-.05,4.57,0,6.86-.06l-.45.45-.05-11.72.5.5-13.87-.06c-4.62,0-9.24-.11-13.87-.17l.28-.27c0,1.92-.09,3.85-.13,5.8Zm0,0-.14-5.8c0-2-.11-3.93-.13-5.92v-.27h.27c4.63-.05,9.25-.16,13.87-.17l13.87-.06h.5v.5l-.06,11.72v.45h-.44c-2.34,0-4.68,0-7-.06l-7-.11Z" style="fill:#ebebeb"></path><path d="M41.21,351.1l14-.27,6.89-.12c2.3,0,4.58,0,6.86,0l-.44.44-.06-11.71.5.49-13.86-.06c-4.63,0-9.25-.11-13.87-.16l.27-.27c0,1.91-.08,3.84-.13,5.8Zm0,0-.14-5.8c0-1.95-.11-3.93-.13-5.91v-.27h.27c4.62-.05,9.24-.16,13.87-.16l13.86-.06h.51v.51l0,11.71v.45h-.45c-2.33,0-4.67,0-7-.06l-7-.11Z" style="fill:#ebebeb"></path><path d="M56.68,73.85l14-.28,6.89-.11c2.3,0,4.58,0,6.86,0l-.44.44-.06-11.72.5.5-13.86-.06c-4.62,0-9.25-.11-13.87-.17l.27-.27c0,1.92-.08,3.85-.13,5.8Zm0,0-.14-5.8c0-2-.11-3.93-.13-5.92v-.27h.27c4.62,0,9.25-.16,13.87-.16l13.86-.07h.51v.5l0,11.72v.45h-.45c-2.33,0-4.67,0-7-.06l-7-.11Z" style="fill:#ebebeb"></path><path d="M41.21,88.63l14-.28,6.89-.11c2.3,0,4.58,0,6.86-.06l-.44.45-.06-11.72.5.5-13.86-.06c-4.63,0-9.25-.12-13.87-.17l.27-.27c0,1.92-.08,3.85-.13,5.8Zm0,0-.14-5.8c0-2-.11-3.93-.13-5.92v-.27h.27c4.62-.06,9.24-.16,13.87-.17l13.86-.06h.51v.5l0,11.72v.45h-.45c-2.33,0-4.67,0-7,0l-7-.11Z" style="fill:#ebebeb"></path><path d="M431.06,73.85l14-.28,6.89-.11c2.29,0,4.57,0,6.86,0l-.45.44,0-11.72.5.5-13.87-.06c-4.62,0-9.24-.11-13.86-.17l.27-.27c0,1.92-.09,3.85-.13,5.8Zm0,0-.15-5.8c0-2-.11-3.93-.13-5.92v-.27h.28c4.62,0,9.24-.16,13.86-.16l13.87-.07h.5v.5l-.05,11.72v.45h-.44c-2.34,0-4.68,0-7-.06l-7-.11Z" style="fill:#ebebeb"></path><path d="M147.13,196.36l14-.28L168,196c2.29,0,4.57,0,6.86-.05l-.45.44,0-11.72.5.5L161,185.08c-4.62,0-9.25-.11-13.87-.16l.28-.28c0,1.92-.09,3.85-.14,5.8Zm0,0-.14-5.8c0-1.95-.11-3.93-.13-5.92v-.27h.27c4.62-.05,9.25-.16,13.87-.16l13.87-.07h.5v.5l-.05,11.72v.45h-.44c-2.34,0-4.68,0-7-.06l-7-.11Z" style="fill:#ebebeb"></path><rect x="378.5" y="78.94" width="67.59" height="81.99" style="fill:#ebebeb"></rect><rect x="386.22" y="86.42" width="52.15" height="67.02" style="fill:#fff"></rect><rect x="386.22" y="86.42" width="2.03" height="67.02" style="fill:#c7c7c7"></rect><rect x="446.09" y="78.94" width="2.03" height="81.99" style="fill:#c7c7c7"></rect><rect x="413.46" y="101.92" width="12.3" height="36.63" transform="translate(839.21 240.47) rotate(180)" style="fill:#ebebeb"></rect><path d="M431.62,114.11H397.83v-19h33.79Zm-32.79-1h31.79v-17H398.83Z" style="fill:#ebebeb"></path><rect x="378.5" y="280.99" width="67.59" height="81.99" style="fill:#ebebeb"></rect><rect x="386.22" y="288.48" width="52.15" height="67.02" style="fill:#fff"></rect><rect x="386.22" y="288.48" width="2.03" height="67.02" style="fill:#c7c7c7"></rect><rect x="446.09" y="280.99" width="2.03" height="81.99" style="fill:#c7c7c7"></rect><rect x="403.7" y="303.98" width="12.3" height="36.63" style="fill:#ebebeb"></rect><path d="M431.62,316.17H397.83V297.22h33.79Zm-32.79-1h31.79V298.22H398.83Z" style="fill:#ebebeb"></path><rect x="378.5" y="180.34" width="67.59" height="81.99" style="fill:#ebebeb"></rect><rect x="386.22" y="187.82" width="52.15" height="67.02" style="fill:#fff"></rect><rect x="386.22" y="187.82" width="2.03" height="67.02" style="fill:#c7c7c7"></rect><rect x="446.09" y="180.34" width="2.03" height="81.99" style="fill:#c7c7c7"></rect><rect x="407.24" y="205.14" width="10.53" height="26.63" style="fill:#ebebeb"></rect><path d="M429.37,240.19h-29.3V220.83h29.3Zm-28.3-1h27.3V221.83h-27.3Z" style="fill:#dbdbdb"></path><path d="M157.06,253.26a12.58,12.58,0,0,1-.88,4.84,8,8,0,0,1-3.62,3.73c-.55.33-1.23.71-2,1.13a16.85,16.85,0,0,0-2.37,1.51,8.66,8.66,0,0,0-1.95,2.06,4.75,4.75,0,0,0-.79,2.72,4.37,4.37,0,0,0,.44,2,4.58,4.58,0,0,0,1.15,1.49,4.81,4.81,0,0,0,1.67.9,6.6,6.6,0,0,0,1.95.3,5.57,5.57,0,0,0,2.2-.41,7.36,7.36,0,0,0,1.79-1,8.79,8.79,0,0,0,1.43-1.43,14.78,14.78,0,0,0,1.07-1.51l4.78,3.3a10.8,10.8,0,0,1-1.9,3,11.46,11.46,0,0,1-2.69,2.22A12.81,12.81,0,0,1,154,279.5a14.09,14.09,0,0,1-3.62.46,14.41,14.41,0,0,1-4.12-.6,10.7,10.7,0,0,1-3.66-1.92,9.9,9.9,0,0,1-2.63-3.38,11,11,0,0,1-1-4.92,10.73,10.73,0,0,1,.41-3.1,8.82,8.82,0,0,1,1.18-2.45,10.32,10.32,0,0,1,1.82-2,20.83,20.83,0,0,1,2.36-1.7q1.1-.66,2.19-1.26a12.82,12.82,0,0,0,2-1.35,6.45,6.45,0,0,0,1.48-1.7,4.42,4.42,0,0,0,.58-2.34Zm-.11-12.8V248h-6.1v-7.58Z" style="fill:#ebebeb"></path><path d="M348.3,224.51a12.75,12.75,0,0,1,.88-4.83,8.05,8.05,0,0,1,3.63-3.74c.55-.33,1.22-.7,2-1.13a15.91,15.91,0,0,0,2.36-1.51,8.48,8.48,0,0,0,1.95-2.06,4.73,4.73,0,0,0,.8-2.72,4.56,4.56,0,0,0-.44-2,4.68,4.68,0,0,0-1.15-1.48,4.87,4.87,0,0,0-1.68-.91,6.5,6.5,0,0,0-1.95-.3,5.75,5.75,0,0,0-2.2.41,7.87,7.87,0,0,0-1.78,1,8.73,8.73,0,0,0-1.43,1.42,16,16,0,0,0-1.07,1.52l-4.78-3.3a10.86,10.86,0,0,1,1.89-3,11.8,11.8,0,0,1,2.7-2.23,12.57,12.57,0,0,1,3.26-1.37,14.23,14.23,0,0,1,7.75.14,10.32,10.32,0,0,1,3.65,1.92,10,10,0,0,1,2.64,3.38,11,11,0,0,1,1,4.91,10.8,10.8,0,0,1-.41,3.11,8.52,8.52,0,0,1-1.19,2.44,9.71,9.71,0,0,1-1.81,2,20.49,20.49,0,0,1-2.36,1.7c-.73.44-1.47.87-2.2,1.27a13.15,13.15,0,0,0-2,1.34,6.7,6.7,0,0,0-1.49,1.71,4.5,4.5,0,0,0-.57,2.33Zm.11,12.8v-7.58h6.1v7.58Z" style="fill:#ebebeb"></path></g><g id="freepik--Shadow--inject-81"><ellipse cx="250" cy="445.64" rx="113.42" ry="16.09" style="fill:#ebebeb"></ellipse></g><g id="freepik--speech-bubbles--inject-81"><path d="M159.06,166.25a10.79,10.79,0,1,0,10.79-10.78A10.79,10.79,0,0,0,159.06,166.25Z" style="fill:#fff"></path><path d="M159.06,166.25a10.81,10.81,0,0,0,3.21,7.58,10.62,10.62,0,0,0,7.58,3,10.5,10.5,0,0,0,7.32-3.21,10.52,10.52,0,0,0,0-14.65,10.54,10.54,0,0,0-14.9-.25A10.78,10.78,0,0,0,159.06,166.25Zm0,0a10.9,10.9,0,0,1,3.11-7.68,11.06,11.06,0,0,1,15.61-.25,11.06,11.06,0,0,1,0,15.86,11,11,0,0,1-15.61-.25A10.88,10.88,0,0,1,159.06,166.25Z" style="fill:#263238"></path><path d="M77.46,108.17A51.34,51.34,0,1,0,128.8,56.83,51.34,51.34,0,0,0,77.46,108.17Z" style="fill:#fff"></path><path d="M77.46,108.17a51.29,51.29,0,0,0,15.09,36.25A51.09,51.09,0,0,0,164.8,72.17a51.11,51.11,0,0,0-87.34,36Zm0,0a51.45,51.45,0,1,1,3.88,19.66A51.62,51.62,0,0,1,77.46,108.17Z" style="fill:#263238"></path><path d="M184,184a6,6,0,1,0,6-6A6,6,0,0,0,184,184Z" style="fill:#fff"></path><path d="M184,184a5.76,5.76,0,0,0,6,5.76,5.76,5.76,0,0,0,0-11.51,5.76,5.76,0,0,0-6,5.75Zm0,0a6.26,6.26,0,0,1,1.71-4.29,6.16,6.16,0,0,1,4.3-2,6.25,6.25,0,1,1,0,12.5,6.21,6.21,0,0,1-4.3-1.95A6.28,6.28,0,0,1,184,184Z" style="fill:#263238"></path><path d="M105.41,97.24l5.37,10.49,5.46-10.49h4.57l-7.91,14.17V119h-4.21v-7.67l-7.88-14.1Z" style="fill:#3254A0"></path><path d="M138.32,115.3V119H123.2V97.24H138V101H127.43v5.24h9.17v3.44h-9.17v5.67Z" style="fill:#3254A0"></path><path d="M154.14,102.94a4.83,4.83,0,0,0-.78-.58,8.78,8.78,0,0,0-1.38-.72,11,11,0,0,0-1.76-.6,7.92,7.92,0,0,0-1.93-.25,4.32,4.32,0,0,0-2.61.65,2.14,2.14,0,0,0-.86,1.81,1.9,1.9,0,0,0,.32,1.12,3,3,0,0,0,.94.78,7.82,7.82,0,0,0,1.55.61c.62.19,1.34.38,2.16.59a29.32,29.32,0,0,1,2.9.92,7.78,7.78,0,0,1,2.21,1.22,5.09,5.09,0,0,1,1.39,1.77,5.76,5.76,0,0,1,.49,2.53,6.32,6.32,0,0,1-.66,3,5.66,5.66,0,0,1-1.78,2,7.56,7.56,0,0,1-2.57,1.11,12.68,12.68,0,0,1-3.05.36,16.4,16.4,0,0,1-4.85-.74,14.86,14.86,0,0,1-4.29-2.08l1.87-3.65a6.08,6.08,0,0,0,1,.72,16.63,16.63,0,0,0,1.71.89,14.49,14.49,0,0,0,2.17.75,10.1,10.1,0,0,0,2.46.3c2.33,0,3.49-.74,3.49-2.23a1.83,1.83,0,0,0-.4-1.2,3.33,3.33,0,0,0-1.13-.86,10.79,10.79,0,0,0-1.78-.67l-2.33-.68a19.75,19.75,0,0,1-2.71-.93,7.16,7.16,0,0,1-1.92-1.2,4.39,4.39,0,0,1-1.15-1.6,5.42,5.42,0,0,1-.38-2.16,6.75,6.75,0,0,1,.61-2.94,5.89,5.89,0,0,1,1.7-2.15,7.87,7.87,0,0,1,2.53-1.3,10.32,10.32,0,0,1,3.1-.45,12,12,0,0,1,4.23.72A15.85,15.85,0,0,1,156,99.51Z" style="fill:#3254A0"></path><path d="M332.61,166.25a10.79,10.79,0,1,1-10.78-10.78A10.79,10.79,0,0,1,332.61,166.25Z" style="fill:#fff"></path><path d="M332.61,166.25a10.8,10.8,0,0,1-3.11,7.68,11,11,0,0,1-15.6.25,11,11,0,0,1,0-15.86,11,11,0,0,1,15.6.25A10.81,10.81,0,0,1,332.61,166.25Zm0,0a10.74,10.74,0,0,0-3.21-7.57,10.54,10.54,0,0,0-14.9.25,10.54,10.54,0,0,0,0,14.65,10.54,10.54,0,0,0,14.9.25A10.77,10.77,0,0,0,332.61,166.25Z" style="fill:#263238"></path><path d="M414.22,108.17a51.34,51.34,0,1,1-51.34-51.34A51.35,51.35,0,0,1,414.22,108.17Z" style="fill:#fff"></path><path d="M414.22,108.17A51.57,51.57,0,0,1,315,128a51.66,51.66,0,0,1,11.25-56.42,51.58,51.58,0,0,1,88,36.6Zm0,0a51.09,51.09,0,1,0-98.34,19.47,51.06,51.06,0,0,0,94.39.16A51.65,51.65,0,0,0,414.22,108.17Z" style="fill:#263238"></path><path d="M307.63,184a6,6,0,1,1-6-6A6,6,0,0,1,307.63,184Z" style="fill:#fff"></path><path d="M307.63,184a6.25,6.25,0,0,1-6,6.25,6.26,6.26,0,1,1,0-12.5,6.27,6.27,0,0,1,6,6.25Zm0,0a5.74,5.74,0,0,0-6-5.75,5.76,5.76,0,0,0,0,11.51,5.74,5.74,0,0,0,6-5.76Z" style="fill:#263238"></path><path d="M345.44,105.1v14h-4.23V97.28h3.28l11.35,14.29V97.31h4.23v21.75h-3.43Z" style="fill:#263238"></path><path d="M373.9,119.21a10,10,0,0,1-4.34-.93,10.9,10.9,0,0,1-3.34-2.49,11.55,11.55,0,0,1-2.93-7.62,11,11,0,0,1,.81-4.17,11.78,11.78,0,0,1,2.24-3.53A10.92,10.92,0,0,1,369.73,98a10.12,10.12,0,0,1,4.27-.9,9.51,9.51,0,0,1,4.31,1,10.66,10.66,0,0,1,3.32,2.53,11.56,11.56,0,0,1,2.15,3.55,11.24,11.24,0,0,1,.77,4,11.08,11.08,0,0,1-.8,4.16,11.2,11.2,0,0,1-2.21,3.49,10.58,10.58,0,0,1-3.37,2.43A10.12,10.12,0,0,1,373.9,119.21Zm-6.31-11a8.66,8.66,0,0,0,.43,2.73,7.14,7.14,0,0,0,1.24,2.33,6.07,6.07,0,0,0,2,1.63,6.19,6.19,0,0,0,5.4,0,6.19,6.19,0,0,0,2-1.67,7.64,7.64,0,0,0,1.23-2.35,8.88,8.88,0,0,0,.41-2.65,8.67,8.67,0,0,0-.44-2.73,7.58,7.58,0,0,0-1.26-2.33,6.12,6.12,0,0,0-2-1.61,5.78,5.78,0,0,0-2.66-.6,5.72,5.72,0,0,0-2.72.63,6,6,0,0,0-2,1.66,7.48,7.48,0,0,0-1.21,2.33A8.57,8.57,0,0,0,367.59,108.17Z" style="fill:#263238"></path></g><g id="freepik--Plant--inject-81"><path d="M116.13,308c-14.06,19-28.73,41.14-32.3,65,0,.36.54.48.62.12A143.23,143.23,0,0,1,90.67,354c9.25-2.54,18.32-4.63,23.17-13.81,5-9.43,4.33-21.73,3.39-32C117.16,307.62,116.41,307.59,116.13,308Z" style="fill:#3254A0"></path><path d="M90.81,353.8c6.32-14.17,14.43-28.41,24.73-40.06.07-.08.18,0,.12.11-6.75,8.3-11.88,17.34-16.89,26.54,4.66-4.72,9.76-9,14.17-14,.09-.1.22,0,.14.14-4.38,5.26-9.16,11-14.86,14.86q-2.31,4.23-4.64,8.48c.38-.21.78-.4,1.17-.6.07,0,.13.07.06.11-.43.22-.86.45-1.31.64-.74,1.34-1.48,2.68-2.24,4C91.09,354.36,90.68,354.1,90.81,353.8Z" style="fill:#263238"></path><path d="M95.51,348.86a83.08,83.08,0,0,0,10.79-7.21c.1-.07.23.06.14.13a56.81,56.81,0,0,1-10.78,7.34A.15.15,0,0,1,95.51,348.86Z" style="fill:#263238"></path><path d="M82.21,369.43c0,.29.52.29.51,0,.07-7.87,0-15.77.13-23.67,2-4.06,6.34-6.31,9.34-9.57a41.37,41.37,0,0,0,5.61-7.81,56.17,56.17,0,0,0,6.51-21.7c.83-8.41-2.36-36.17-5.91-35.2-1.84.5-7.79,14.25-9.37,18.79a132.23,132.23,0,0,0-5.6,23.05C80.56,331.8,80.8,350.81,82.21,369.43Z" style="fill:#3254A0"></path><path d="M82.15,335.51l0,0c.43-10,2.67-20,4.77-29.66,2.26-10.39,4.9-20.18,10.25-29.46.1-.17.36,0,.27.16a109.22,109.22,0,0,0-8.24,22.61c.36-.56.79-1.09,1.17-1.62.14-.21.49,0,.34.2a14.14,14.14,0,0,1-1.67,2.36.11.11,0,0,1-.07,0c-1.84,7.44-3.16,15-4.3,22.62.09-.1.17-.2.26-.29s.15,0,.11.09q-.21.38-.45.75c-.57,3.85-1.1,7.69-1.63,11.5,6.85-5.86,12.71-12.77,16-21.27,0,0,.08,0,.06,0-3.23,8.82-8.33,16.66-16.18,22-.14,1-.28,2-.43,3.07,0,.21-.37.16-.37-.05,0-.91,0-1.81.09-2.72C82.08,335.75,82,335.6,82.15,335.51Z" style="fill:#263238"></path><path d="M85.38,321.09c5.24-7.82,10.13-15.41,14-24,0-.09.21,0,.17.07-3.23,8.59-7.75,17.29-13.87,24.18C85.52,321.43,85.27,321.25,85.38,321.09Z" style="fill:#263238"></path><path d="M92.34,295.11c2.17-3.84,4.46-7.57,6.5-11.49,0-.11.21,0,.16.1a59.5,59.5,0,0,1-6.33,11.59C92.53,295.5,92.21,295.33,92.34,295.11Z" style="fill:#263238"></path><path d="M91.49,296.78s0,.07,0,.07S91.45,296.78,91.49,296.78Z" style="fill:#263238"></path><path d="M76.88,346.69a79.74,79.74,0,0,1-1.83,15.49c.08.56.16,1.12.24,1.7a74,74,0,0,0,2.77-17.27.54.54,0,0,0,0-.54h0a114.13,114.13,0,0,0-1.73-23.4c-2.44-14.46-7.76-28.33-17.84-39.16a.72.72,0,0,0-1.11.23c-4.07,10.34-2.65,22.68.81,33a60.25,60.25,0,0,0,8,15.67C69.67,337.27,74.07,341.38,76.88,346.69Z" style="fill:#3254A0"></path><path d="M59.7,288.34c9.56,15.5,16.2,33.89,17,52.2,0,.32-.53.41-.58.08-.23-1.65-.48-3.28-.74-4.9h0c-3.95-3.78-8-7.78-10.84-12.51a.09.09,0,0,1,.14-.1c3.44,3.93,6.65,7.95,10.53,11.46-.69-4.05-1.5-8-2.46-12l-.75-.89c-.17-.2.11-.48.28-.29l.23.26a139.53,139.53,0,0,0-5-15.86c-2.44-2.9-5.16-5.41-6.93-8.9a.08.08,0,0,1,.13-.08c1.42,2,2.8,4,4.42,5.87.64.74,1.35,1.43,2,2.15a123.37,123.37,0,0,0-7.82-16.3A.21.21,0,0,1,59.7,288.34Z" style="fill:#263238"></path><path d="M61.64,307.46c3.08,4.16,6.6,8.13,9.47,12.42.08.12-.09.25-.2.15-3.69-3.46-6.81-8.18-9.48-12.44C61.34,307.45,61.55,307.34,61.64,307.46Z" style="fill:#263238"></path><path d="M71.54,320.84l.14.13a.11.11,0,0,1-.15.15L71.4,321A.1.1,0,0,1,71.54,320.84Z" style="fill:#263238"></path><path d="M44.74,318.14c.76,8,5,17.51,10.08,23.66A25.25,25.25,0,0,0,63,348.17c3.54,1.76,7.25,3.77,10.91,5.21a72.52,72.52,0,0,1,3.87,13.72c.11-.4.23-.81.35-1.21C75.77,345.69,62.7,328.43,46,317.35A.81.81,0,0,0,44.74,318.14Z" style="fill:#3254A0"></path><path d="M50.51,324.11c-.12-.1,0-.31.17-.22A68.36,68.36,0,0,1,72,350.14c.12.28-.26.52-.41.24-.78-1.36-1.57-2.68-2.38-4h0c-3.81-.72-7.43-3.41-10.26-5.95-.08-.07,0-.19.11-.12a23.1,23.1,0,0,0,4.83,3.39c1.56.79,3.23,1.29,4.85,1.92-1.42-2.24-2.89-4.39-4.43-6.48a44.47,44.47,0,0,1-11.46-6.45c-.11-.08,0-.25.1-.18a115.1,115.1,0,0,0,10.66,5.7,95.82,95.82,0,0,0-7.52-8.78c-1.3-.68-2.62-1.37-3.87-2.1-.1-.06,0-.24.08-.2a14.34,14.34,0,0,1,3,1.46C53.73,327.09,52.18,325.58,50.51,324.11Z" style="fill:#263238"></path><path d="M50.87,331.08a5,5,0,0,1,.64.46c.06.06,0,.14-.08.11a5.51,5.51,0,0,1-.67-.38A.11.11,0,0,1,50.87,331.08Z" style="fill:#263238"></path><polygon points="104.21 410.84 58.4 410.84 62.1 369.12 62.91 359.92 99.7 359.92 100.51 369.12 104.21 410.84" style="fill:#455a64"></polygon><polygon points="100.51 369.12 62.1 369.12 62.91 359.92 99.7 359.92 100.51 369.12" style="fill:#263238"></polygon><rect x="60.72" y="353.49" width="41.17" height="9.1" style="fill:#455a64"></rect></g><g id="freepik--Table--inject-81"><polygon points="36.71 410.85 90.03 410.61 143.35 410.52 250 410.35 356.64 410.52 409.97 410.61 463.29 410.85 409.97 411.1 356.64 411.19 250 411.35 143.35 411.18 90.03 411.1 36.71 410.85" style="fill:#263238"></polygon></g><g id="freepik--Character--inject-81"><path d="M301.08,323.84l-8.89-.93a24.64,24.64,0,0,0-1.34-7c-3.11-8.75-9.9-16-15.1-23.19,0,0-.06,0,0,.05a82.37,82.37,0,0,1,11.64,24.27,23.18,23.18,0,0,1,.76,5.38l-5.54-.57A33.49,33.49,0,0,0,279,306.54c-.07-.14-.3,0-.24.18,2,4.8,2.25,9.84,1.85,15l-48.07-5.07a81.45,81.45,0,0,1-.53-13.3.36.36,0,1,0-.71,0,113.29,113.29,0,0,0,0,13.16l-4-.44a89,89,0,0,1,2.26-22.63.19.19,0,1,0-.36-.1,106.56,106.56,0,0,0-4,22.51l-33.28-3.49a95,95,0,0,0,5.65-14.53c.14-.41-.47-.58-.61-.16a71.28,71.28,0,0,1-7,14.48l-4.94-.51c4.36-8.16,7.77-16.76,9-25.88,0-.37-.53-.44-.6-.07-1.87,9.8-7.25,17.66-12.6,25.5l-12.53-1.31c4.86-7.33,12.88-13.77,14.53-22.69,1.82-10-7.12-15.42-9.36-24.09-3.76-14.52,4.12-24.6,13.78-33.76,8.88-8.46,8.67-18.81,11.43-30.14,2-8.34,5-17.53,9.94-24.59,15.14-21.8,39.43-17,39.43-16.72a30.88,30.88,0,0,1,15.71,5.83.15.15,0,0,1,.07,0,8.56,8.56,0,0,1,.91.73,40.67,40.67,0,0,1,11.82,16.1l0,.08a60.53,60.53,0,0,1,2.3,6.18c1.18,3.81,1.15,9,2,15a1,1,0,0,0,0,.35A43.22,43.22,0,0,0,295.82,230c12.7,11.22,8.05,27.68-3.76,43.72-5,6.8-5.42,11.37-3.85,15.41,0,0,0,0,0,.06.24.55.46,1,.73,1.55,2.35,4.48,6.85,8.55,9.74,14.65C301.39,311,301.71,317.45,301.08,323.84Z" style="fill:#263238"></path><path d="M226.71,159.74a43.16,43.16,0,0,0-22.49,24.13c-3.29,8.55-4.14,18-8.31,26.22-3.94,7.75-10.39,13.4-15.69,20-7,8.71-11.78,19.61-7,30.32,3,6.64,10,13.48,9.1,21.66-1,9.55-9.84,18.31-14.76,26-.24.37.29.82.56.46,6.58-8.59,17.88-19.74,15-31.69-1.34-5.47-4.68-9.78-7.25-14.53-5-9.22-3.3-18.68,2.64-27.49,8.05-11.93,18.2-19.31,22.31-34,2.34-8.4,3.64-17.09,8.37-24.54a43.25,43.25,0,0,1,17.79-15.92C227.22,160.17,227,159.6,226.71,159.74Z" style="fill:#263238"></path><path d="M294.91,302.82c-3.38-5.26-7.68-9.24-5.31-16.76,1.65-5.21,5.57-9.53,8.34-14.08,6.93-11.35,11.3-25.89,5.73-38.33-3.14-7-9-9-13.79-14.31-5.79-6.41-7.56-15.83-9.09-24.51-2.29-13-5.27-27.87-18.45-31.61-.11,0-.16.16,0,.2,16.72,5.87,15.52,27.55,19.63,42.86,1.4,5.2,3.51,10.25,7,14.1,5.52,6.1,12.49,8.45,15,17.55,2.39,8.53.7,17.73-2.86,25.92-3.08,7.1-8.42,12.87-11.37,20-1.77,4.24-2.37,8.7-.42,12.77,1.53,3.19,4.3,5.43,6,8.53a24.74,24.74,0,0,1,2.52,13.78c0,.49.65.46.7,0A24.67,24.67,0,0,0,294.91,302.82Z" style="fill:#263238"></path><path d="M253.08,291.09c24.25,42.89,87,103.32,105.61,93.68,22.82-11.83,27.15-70.75,25.44-84.07-1-8-63.55-6.5-62,2,.93,5,2.84,10.28,1.66,9.63-3.69-2-13.14-11-47.87-36.88C256.61,261,237,262.7,253.08,291.09Z" style="fill:#f7a9a0"></path><path d="M328,348.62c-2.22-5.75-7.18-21.87-3.8-36.88,0-.17.23-.15.22,0-1.34,12.52,2,30.95,3.77,36.76C328.21,348.67,328,348.77,328,348.62Z" style="fill:#263238"></path><path d="M376.28,260c6,11.38,9.17,39.44,7.33,46.5s-49.37,14-54.77,8.85-22.63-45.06-20.15-57.95S370.06,248.17,376.28,260Z" style="fill:#f7a9a0"></path><path d="M313.77,228.15c-3.14-5.07-16.17-18.76-20.56-16s2.34,14.33,5.22,18.94c5.95,9.48,8.89,24.67,10.18,32.05s17-3.32,17-3.32S321.92,241.3,313.77,228.15Z" style="fill:#f7a9a0"></path><path d="M315.5,272.56s1.94,13.07,9.36,14.37c7.15,1.23,7.74-9.55,7.79-10.32.11.69,2.2,12.66,9.79,13.19,7.89.55,6.62-10.37,6.53-11.08.31.62,4.51,8.75,10.37,7.85,10.07-1.57-.1-22.65,2.94-30.32,0,0,13.58,3.68,14,3.7,0,0-9.27-20.26-19.83-23.79a7.12,7.12,0,0,0-8.41,3s-2.26-6.86-8.23-7.47c-3.06-.3-6.27,4.32-6.27,4.32s-2-5.42-7.38-5.63c-4.26-.18-7.39,4.53-8,6.46C313.11,251.7,315.5,272.56,315.5,272.56Z" style="fill:#f7a9a0"></path><path d="M318.83,235.52c0-.12-.14-.18-.18-.06C314,246.93,312.42,261,315.41,273c.09.39.78.4.76-.05C315.47,259.94,315.89,248.31,318.83,235.52Z" style="fill:#263238"></path><path d="M333.49,235.79c0-.14-.19-.19-.25,0-4.72,11.85-6.07,27.69-1,41.21.18.47.8.71.64.16C330.19,267.86,330.79,247.29,333.49,235.79Z" style="fill:#263238"></path><path d="M349.65,279.54c-4.37-13.15-4.08-26.38-1.84-39.93,0-.18-.22-.2-.28-.06-2.91,6.33-3.44,15.11-3.28,22a36.66,36.66,0,0,0,4.94,18.17C349.32,279.92,349.75,279.83,349.65,279.54Z" style="fill:#263238"></path><path d="M315.5,272.56a41.32,41.32,0,0,0,2.47,7.2,14,14,0,0,0,4.39,5.82,4.55,4.55,0,0,0,3.19.78,6.67,6.67,0,0,0,3.12-1.3,8.15,8.15,0,0,0,2.7-6.06l.23-5.59,1.72,5.33a23.11,23.11,0,0,0,3.34,6.61c1.45,1.94,3.42,3.48,5.61,3.63a4.65,4.65,0,0,0,5.05-3,14.29,14.29,0,0,0,.57-7.06l-.92-6.55,3,5.86a21.35,21.35,0,0,0,3.09,4.53,8.76,8.76,0,0,0,4.24,2.84,4.2,4.2,0,0,0,4.23-1.31,9.21,9.21,0,0,0,1.46-5,73,73,0,0,0-.73-11.45c-.2-1.93-.41-3.86-.53-5.81a13.93,13.93,0,0,1,.55-5.78,14.93,14.93,0,0,0,0,5.73c.27,1.91.62,3.81,1,5.72a62.35,62.35,0,0,1,1.36,11.66,10.92,10.92,0,0,1-1.56,6.05,6,6,0,0,1-6.17,2.18,10.8,10.8,0,0,1-5.36-3.39,23.66,23.66,0,0,1-3.52-5l2.08-.69a16.33,16.33,0,0,1-.58,8.35,6.77,6.77,0,0,1-3,3.49,7.67,7.67,0,0,1-4.44.86c-3.11-.3-5.52-2.42-7.11-4.61a24.76,24.76,0,0,1-3.55-7.33l1.95-.25a9.7,9.7,0,0,1-3.73,7.31,8.21,8.21,0,0,1-3.94,1.42,5.93,5.93,0,0,1-4-1.17c-2.24-1.7-3.37-4.19-4.31-6.57A34.08,34.08,0,0,1,315.5,272.56Z" style="fill:#263238"></path><path d="M324.71,309s-42.39-34.34-20.85-44.33c6.4-3,36.24-7.53,37.27-1.55,1.33,7.71-10.77,11.94-18.79,13.38,0,0,16.07,9.66,12.68,22.85C332.9,307.64,324.71,309,324.71,309Z" style="fill:#f7a9a0"></path><path d="M302.12,265.63a28.46,28.46,0,0,1,7.64-3.28,61.83,61.83,0,0,1,8.15-1.82,96.43,96.43,0,0,1,16.68-1.34,16,16,0,0,1,4.39.67,5.84,5.84,0,0,1,2.2,1.26,4,4,0,0,1,.87,1.1,4.31,4.31,0,0,1,.44,1.31,7,7,0,0,1-1,4.77,13.4,13.4,0,0,1-3.09,3.35,25.43,25.43,0,0,1-7.71,3.84,57.56,57.56,0,0,1-8.2,2l.31-1.78a33.7,33.7,0,0,1,5,4,31.73,31.73,0,0,1,4.14,4.82,21.32,21.32,0,0,1,2.76,5.7,16.21,16.21,0,0,1,.73,6.21,18.35,18.35,0,0,0-1.36-6,22.36,22.36,0,0,0-3.12-5.21,30,30,0,0,0-4.21-4.37,32.79,32.79,0,0,0-4.92-3.48l-2.16-1.22,2.47-.57a60.73,60.73,0,0,0,7.83-2.15,24.83,24.83,0,0,0,7-3.59c2-1.54,3.6-3.79,3.21-5.88-.18-1.88-3.16-2.42-5.75-2.57a79.22,79.22,0,0,0-8.15,0c-2.75.11-5.49.26-8.21.55C312.69,262.64,307.15,263.3,302.12,265.63Z" style="fill:#263238"></path><path d="M283.66,347.16l27.69-48.64s-32.22-26-51.74-35.74c-10.94-5.49-15.35,2.93-12.25,13.55C258.19,313.48,283.66,347.16,283.66,347.16Z" style="fill:#3254A0"></path><path d="M283.66,347.16l27.69-48.64s-32.22-26-51.74-35.74c-10.94-5.49-15.35,2.93-12.25,13.55C258.19,313.48,283.66,347.16,283.66,347.16Z" style="fill:#3254A0"></path><path d="M246.47,268.48a9.28,9.28,0,0,0-.06.93,2.63,2.63,0,0,1,.19,1,2.28,2.28,0,0,1-.16.87c0,.31,0,.64.08,1a3,3,0,0,0,.61-1.83A3.09,3.09,0,0,0,246.47,268.48Zm21.13,11.69a3.07,3.07,0,1,0,3.06,3.05A3.08,3.08,0,0,0,267.6,280.17Zm0,5.61a2.55,2.55,0,1,1,2.52-2.56A2.55,2.55,0,0,1,267.6,285.78Zm16.21,38.77a3.06,3.06,0,1,0,3.06,3.06A3.06,3.06,0,0,0,283.81,324.55Zm0,5.58a2.52,2.52,0,0,1-2.53-2.52,2.53,2.53,0,1,1,5.06,0A2.52,2.52,0,0,1,283.81,330.13Zm-18.44-25.48a3.06,3.06,0,1,0,3.06,3.06A3.06,3.06,0,0,0,265.37,304.65Zm0,5.58a2.53,2.53,0,1,1,0-5.06,2.53,2.53,0,1,1,0,5.06Zm28.23-15a3.07,3.07,0,1,0,0,6.14,3.07,3.07,0,0,0,0-6.14Zm0,5.61a2.54,2.54,0,1,1,2.52-2.52A2.53,2.53,0,0,1,293.6,300.83Z" style="fill:#fff"></path><path d="M305.07,309.55l-21.41,37.61s-25.47-33.68-36.3-70.83c-1.16-4-1.27-7.63-.38-10.37Z" style="opacity:0.1"></path><path d="M302.73,295.86c-4.88,7.13-17.56,26.85-24.12,40.75,0,.08.26.27.31.19,7.2-10.73,20-33.13,24.26-40.66C303.26,296,302.82,295.73,302.73,295.86Z" style="fill:#263238"></path><path d="M142.75,410.3,293.36,410,285,358.16s11.91-14.45,9.66-30.13c-2.47-17.18-33.45-60.72-36.05-63.18-10.49-9.84-21.59-11.6-32.25-8.05h0C177.12,287.75,142.75,410.3,142.75,410.3Z" style="fill:#3254A0"></path><path d="M290.18,390.2a2.52,2.52,0,0,1-1.94.92,2.55,2.55,0,1,1,0-5.09,2.47,2.47,0,0,1,1.34.39l-.11-.65a2.91,2.91,0,0,0-1.23-.26,3.07,3.07,0,1,0,2.05,5.35Zm-30.4-15.82a3.07,3.07,0,1,0,3.06,3.07A3.07,3.07,0,0,0,259.78,374.38Zm0,5.61a2.54,2.54,0,1,1,2.54-2.54A2.54,2.54,0,0,1,259.78,380Zm24-55.44a3.07,3.07,0,1,0,3.07,3.06A3.07,3.07,0,0,0,283.8,324.55Zm0,5.61a2.55,2.55,0,1,1,2.54-2.55A2.54,2.54,0,0,1,283.8,330.16ZM173.4,402.08a3.07,3.07,0,1,0,0,6.14,3.07,3.07,0,0,0,0-6.14Zm0,5.61a2.54,2.54,0,1,1,2.52-2.52A2.53,2.53,0,0,1,173.4,407.69ZM204.61,392a3.07,3.07,0,1,0,3,3.07A3.07,3.07,0,0,0,204.61,392Zm0,5.59a2.54,2.54,0,1,1,2.52-2.52A2.54,2.54,0,0,1,204.61,397.6ZM181,314.47a2.09,2.09,0,0,0-.43,0c-.11.2-.22.4-.32.6A2.67,2.67,0,0,1,181,315a2.53,2.53,0,1,1-2.39,3.3c-.12.22-.22.42-.32.63a3.06,3.06,0,1,0,2.71-4.46Zm8.63,23.47a3.06,3.06,0,1,0,3.05,3.05A3.06,3.06,0,0,0,189.64,337.94Zm0,5.58a2.53,2.53,0,1,1,2.52-2.53A2.55,2.55,0,0,1,189.64,343.52Zm25.21-69.34a3.07,3.07,0,0,0,0,6.14,3.07,3.07,0,1,0,0-6.14Zm0,5.61a2.54,2.54,0,1,1,2.56-2.55A2.54,2.54,0,0,1,214.85,279.79Zm3.08,47.56a3.07,3.07,0,1,0,3.07,3.06A3.06,3.06,0,0,0,217.93,327.35Zm0,5.61a2.54,2.54,0,1,1,2.54-2.55A2.54,2.54,0,0,1,217.93,333Zm26.15-65.65a3.07,3.07,0,1,0,3,3.08A3.08,3.08,0,0,0,244.08,267.31Zm0,5.6a2.54,2.54,0,1,1,2.52-2.52A2.53,2.53,0,0,1,244.08,272.91Zm23.52,7.26a3.07,3.07,0,1,0,3.06,3.05A3.08,3.08,0,0,0,267.6,280.17Zm0,5.61a2.55,2.55,0,1,1,2.52-2.56A2.55,2.55,0,0,1,267.6,285.78ZM257.26,399a3.07,3.07,0,1,0,3.06,3.06A3.06,3.06,0,0,0,257.26,399Zm0,5.61a2.54,2.54,0,1,1,2.52-2.55A2.54,2.54,0,0,1,257.26,404.63Zm-28-25.59a3.06,3.06,0,1,0,3.05,3A3.06,3.06,0,0,0,229.25,379Zm0,5.59a2.53,2.53,0,1,1,0-5.06,2.53,2.53,0,0,1,0,5.06Zm33.07-42.45a3.07,3.07,0,1,0,3.05,3.05A3.06,3.06,0,0,0,262.32,342.18Zm0,5.59a2.54,2.54,0,1,1,2.52-2.54A2.54,2.54,0,0,1,262.32,347.77Zm3.05-43.12a3.06,3.06,0,1,0,3.06,3.06A3.06,3.06,0,0,0,265.37,304.65Zm0,5.58a2.53,2.53,0,1,1,0-5.06,2.53,2.53,0,1,1,0,5.06Zm21.23,44.3a3.06,3.06,0,0,0-1.22,5.86l-.1-.66a2.52,2.52,0,0,1,1.32-4.68,2,2,0,0,1,.61.08c.09-.15.2-.3.3-.47A3,3,0,0,0,286.6,354.53Zm-40-32.78a3.07,3.07,0,1,0,3.06,3.07A3.08,3.08,0,0,0,246.62,321.75Zm0,5.6a2.54,2.54,0,1,1,2.53-2.53A2.53,2.53,0,0,1,246.62,327.35ZM168,354.53a3.06,3.06,0,1,0,3.06,3.05A3.07,3.07,0,0,0,168,354.53Zm0,5.58a2.53,2.53,0,1,1,2.52-2.53A2.53,2.53,0,0,1,168,360.11Zm61.3,47.07a3.06,3.06,0,0,0-3.06,2.92h.53a2.55,2.55,0,0,1,2.53-2.4,2.52,2.52,0,0,1,2.51,2.39h.54A3.06,3.06,0,0,0,229.25,407.18Zm-23.66-47.89a3.06,3.06,0,1,0,3.06,3A3.06,3.06,0,0,0,205.59,359.29Zm0,5.59a2.54,2.54,0,1,1,2.53-2.54A2.54,2.54,0,0,1,205.59,364.88Zm1.52-61.79a3.06,3.06,0,1,0,3.08,3.07A3.07,3.07,0,0,0,207.11,303.09Zm0,5.59a2.53,2.53,0,1,1,0-5.06,2.53,2.53,0,1,1,0,5.06ZM152.76,381a3.58,3.58,0,0,0-.58.05c-.07.21-.14.4-.2.6a2.54,2.54,0,1,1,.78,5,2.5,2.5,0,0,1-2.11-1.16l-.21.6a3,3,0,0,0,2.32,1.08,3.07,3.07,0,1,0,0-6.13ZM186.09,376a3.07,3.07,0,1,0,3.07,3.05A3.06,3.06,0,0,0,186.09,376Zm0,5.59a2.54,2.54,0,1,1,2.54-2.54A2.54,2.54,0,0,1,186.09,381.54ZM234.84,352a3.06,3.06,0,1,0,3,3.06A3.08,3.08,0,0,0,234.84,352Zm0,5.59a2.53,2.53,0,1,1,2.53-2.53A2.54,2.54,0,0,1,234.84,357.58ZM226.9,256.63a2.47,2.47,0,0,1-1.83,1h0l-.7.49a3,3,0,0,0,.52.05,3.08,3.08,0,0,0,2.79-1.79Zm9.46,34.05a3.07,3.07,0,1,0,3.09,3.05A3.06,3.06,0,0,0,236.36,290.68Zm0,5.61a2.55,2.55,0,1,1,2.56-2.56A2.55,2.55,0,0,1,236.36,296.29Z" style="fill:#fff"></path><path d="M261.2,354.2a124.35,124.35,0,0,0-18.29,3c-3,.76-5.9,1.66-8.82,2.62-1.46.48-2.92.91-4.39,1.33a20,20,0,0,1-4.71.89.11.11,0,0,0,0,.22,34.41,34.41,0,0,0,4.54-.08,33.56,33.56,0,0,0,4.32-.82c3-.75,6-1.63,9-2.41,6.1-1.56,12.19-3.13,18.38-4.25C261.56,354.66,261.49,354.17,261.2,354.2Z" style="fill:#263238"></path><path d="M276.42,359.66a134.43,134.43,0,0,0-15.28-.74c-2.55,0-5.08.21-7.63.46-1.21.12-2.42.26-3.63.41s-2.64.52-4,.67c-.14,0-.14.23,0,.22,1.26-.11,2.55,0,3.81,0l3.81-.1c2.55-.06,5.09-.1,7.64-.18,5.09-.18,10.16-.3,15.26-.29C276.7,360.08,276.68,359.68,276.42,359.66Z" style="fill:#263238"></path><path d="M208.31,270.36c-38.36,40.21-86.06,124.23-76.62,141,10.5,18.61,65.38-38.29,63.65-41C193.86,368,213.41,317,227.29,280S217.79,260.42,208.31,270.36Z" style="fill:#f7a9a0"></path><path d="M161.31,318.57l55.08,9.91s13.75-39,16.47-60.69c1.53-12.14-5.6-12.64-14.58-6.19C186.85,284.19,161.31,318.57,161.31,318.57Z" style="fill:#3254A0"></path><path d="M181,314.47a3.06,3.06,0,1,0,3.07,3A3.06,3.06,0,0,0,181,314.47Zm0,5.59a2.53,2.53,0,1,1,2.53-2.54A2.53,2.53,0,0,1,181,320.06Zm33.84-45.88a3.07,3.07,0,0,0,0,6.14,3.07,3.07,0,1,0,0-6.14Zm0,5.61a2.54,2.54,0,1,1,2.56-2.55A2.54,2.54,0,0,1,214.85,279.79Zm-24.07,6.42a3,3,0,0,0-1.33.31h0L188,288h0a2.87,2.87,0,0,0-.3,1.31,3.07,3.07,0,1,0,3.06-3.06Zm0,5.61a2.54,2.54,0,1,1,2.55-2.55A2.54,2.54,0,0,1,190.78,291.82Zm24.88,36.54.64.12a.34.34,0,0,1,.12-.09q.06-.19.27-.78A2.86,2.86,0,0,0,215.66,328.36Zm-8.55-25.27a3.06,3.06,0,1,0,3.08,3.07A3.07,3.07,0,0,0,207.11,303.09Zm0,5.59a2.53,2.53,0,1,1,0-5.06,2.53,2.53,0,1,1,0,5.06Zm17.41-50.53c.11,0,.23,0,.35,0a3,3,0,0,0,1.77-.58A11.66,11.66,0,0,0,224.52,258.15Z" style="fill:#fff"></path><path d="M216,319.47c-8.34-2.23-31.16-7.62-46.44-9.18-.1,0-.17.34-.08.36,12.52,3.22,37.9,7.83,46.41,9.33C216.07,320,216.18,319.51,216,319.47Z" style="fill:#263238"></path><path d="M209.67,327.28c2.27.22,4.54.48,6.79.79l-.47.28c1.64-6,3.46-11.94,5.41-17.84s4-11.75,6.42-17.52c-1.44,6.06-3.18,12-5,18s-3.84,11.83-6,17.66l-.14.35-.34-.07Q213,328.15,209.67,327.28Z" style="fill:#263238"></path><path d="M224.17,304.86a17,17,0,0,1,1.88-3.47,24.77,24.77,0,0,1,2.49-3.09,7.29,7.29,0,0,1-.65,1.89,13.49,13.49,0,0,1-1,1.72A12.86,12.86,0,0,1,224.17,304.86Z" style="fill:#263238"></path><path d="M132.93,413c10.4,11.26,34.42,10.39,95.09,13.89,8.4.48,27.75-57.85,18.81-58.83-11.26-1.23-55.22-3.57-58.46-3.33C161.07,366.73,125.87,405.38,132.93,413Z" style="fill:#f7a9a0"></path><path d="M234.64,367s25.55.36,38.92,4.71c17.9,5.82,30.95,18.21,36.11,23.73,10.77,11.53,28.83,46.85,19.57,53.83-8.39,6.31-25-30.72-25-30.72s23.2,35,11.7,40.71-28.37-38.35-28.37-38.35,23,36.46,10.24,40.51c-9.67,3.06-27.2-36-27.2-36s19.58,31.47,9.77,35c-10.84,4-29.28-31.1-29.28-31.1-26.46,4.89-41.06-3.6-50.73-10.87C198,416.72,234.64,367,234.64,367Z" style="fill:#f7a9a0"></path><path d="M297,405.94c2.88,4,5.81,8.05,8.32,12.3s4.87,8.59,7,13.05c5.15,10.95,6.66,18.61,6.52,18.15-3.43-10.95-12.17-26.31-14.68-30.56s-4.79-8.61-7.29-12.85C296.73,405.92,296.89,405.84,297,405.94Z" style="fill:#263238"></path><path d="M281.45,414.71c3.45,5.28,7.06,10.39,10.28,15.82s5.76,10.82,8.58,16.43c.22.43-.08.4-.32,0-3-5.5-6.28-10.34-9.38-15.8s-6-11-9.29-16.35A.08.08,0,0,1,281.45,414.71Z" style="fill:#263238"></path><path d="M266.79,419.85c5.68,7.8,9.91,16.63,13.86,25.39.2.44-.19.36-.42-.07-4.45-8.53-7.88-15.25-13.72-25.12C266.42,419.89,266.67,419.69,266.79,419.85Z" style="fill:#263238"></path><path d="M164.14,374c4.77-3.05,18.35-10.33,32.12-9.2a.11.11,0,1,1,0,.22c-11.27.52-27.11,6.54-32,9.15C164.13,374.23,164,374.06,164.14,374Z" style="fill:#263238"></path><path d="M233.42,265.48c.74,2.55,14,18.66,25.72,17.48,3.83-.38,2.64-21.4,2.64-21.4l.27-1.57,3.72-22-26.41-15-3.8-2s-.62,6.09-1.32,13.67c0,.36-.07.71-.1,1.08s-.1.84-.13,1.24c-.12,1.13-.24,2.29-.33,3.44-.07.88-.15,1.73-.19,2.66s-.12,1.83-.18,2.75C232.84,255,233.12,264.39,233.42,265.48Z" style="fill:#f7a9a0"></path><path d="M234.24,234.63A44.81,44.81,0,0,0,262.05,260l3.72-22-26.41-15-3.8-2S234.94,227.05,234.24,234.63Z" style="fill:#263238"></path><path d="M291,195.45c11.23,37.52-10,48.48-18.07,50.89-7.34,2.19-32.64,8.72-47.68-27.44s-1.16-53.24,15.38-59.14S279.75,157.93,291,195.45Z" style="fill:#f7a9a0"></path><path d="M281.12,187.67a25.76,25.76,0,0,1-2.57.85,4.34,4.34,0,0,1-2.78.37,1.4,1.4,0,0,1-.86-1.47,3.45,3.45,0,0,1,2.54-2.41,5,5,0,0,1,3.66,0A1.48,1.48,0,0,1,281.12,187.67Z" style="fill:#263238"></path><path d="M258.36,203.91a25.84,25.84,0,0,0,2.22-1.54c.84-.6,1.58-1,2-2a1.37,1.37,0,0,0-.66-1.56,3.41,3.41,0,0,0-3.45.58,5.09,5.09,0,0,0-2.24,2.89A1.49,1.49,0,0,0,258.36,203.91Z" style="fill:#263238"></path><path d="M264.6,205.34c-.05-.09-.16.18-.12.28.94,2.5,1.59,5.52-.41,7.13-.06.05,0,.18.07.14C266.79,211.55,265.89,207.55,264.6,205.34Z" style="fill:#263238"></path><path d="M261.45,203.46c-4.17,1.07-1.72,9.33,2.14,8.34S264.94,202.57,261.45,203.46Z" style="fill:#263238"></path><path d="M260,204.38c-.59.68-1,1.71-1.89,2.06s-2-.24-2.9-.88c-.09-.07-.14,0-.11.14.45,1.59,1.54,3,3.3,2.76s2.31-2,2.23-3.68C260.58,204.47,260.19,204.11,260,204.38Z" style="fill:#263238"></path><path d="M278.74,199.93c0-.1.24.07.26.17.66,2.59,1.85,5.44,4.41,5.62.08,0,.11.14,0,.15C280.49,206.29,279,202.49,278.74,199.93Z" style="fill:#263238"></path><path d="M280.26,196.6c4-1.5,6.73,6.67,3,8.06S276.88,197.86,280.26,196.6Z" style="fill:#263238"></path><path d="M282.14,196.57c.79.22,1.69.8,2.48.59s1.28-1.34,1.57-2.37c0-.11.12-.06.16,0,.56,1.55.58,3.35-.82,4.15s-2.73-.29-3.62-1.72C281.75,197,281.82,196.48,282.14,196.57Z" style="fill:#263238"></path><path d="M271.69,227.11c.77.46,1.6,1.14,2.56,1a6.88,6.88,0,0,0,2.62-1.34.09.09,0,0,1,.14.11,3.58,3.58,0,0,1-2.94,2.22,2.85,2.85,0,0,1-2.6-1.79C271.39,227.15,271.58,227.05,271.69,227.11Z" style="fill:#263238"></path><path d="M279.49,214.61s1.71,3.64,2.26,5.44c.05.17-.36.38-.95.6,0,0,0,0-.07,0a9,9,0,0,1-9.28-.62.2.2,0,0,1,.19-.34,13.47,13.47,0,0,0,8.49-.17c0-.54-3.13-6.14-2.85-6.25a16.22,16.22,0,0,1,4.36-.34c-3.33-7.69-7.86-14.78-11.06-22.49a.26.26,0,0,1,.44-.26c5.27,7.1,9.29,15.86,12.93,23.71C284.42,214.9,280.31,214.69,279.49,214.61Z" style="fill:#263238"></path><path d="M229.18,160.73c-.35,3.33-16.58,10.58-27.53,1.51s-5.41-25.75,10-23.34C221.46,140.43,229.93,153.68,229.18,160.73Z" style="fill:#263238"></path><path d="M196.63,146.9a19.6,19.6,0,0,1,9.1-9.21,11.85,11.85,0,0,1,11.81.57c3.61,2.19,6.26,5.82,8.28,9.69a36.94,36.94,0,0,1,2.42,6.17,18,18,0,0,1,.94,6.61,16.06,16.06,0,0,0,.26-6.87,29.71,29.71,0,0,0-1.85-6.71,23,23,0,0,0-8.73-11,13.72,13.72,0,0,0-7-2.11,13.93,13.93,0,0,0-7,1.94A17.31,17.31,0,0,0,196.63,146.9Z" style="fill:#263238"></path><path d="M230.31,221.87c7.77-2.77,2-20.75,2-20.75s12.35-7,14.73-17.8c0,0-1,9-5.06,14-.68.84,25.17-11,20.67-32.43,0,0,10.88,18.9,24.52,18.86.65,0-8.11-17.83-13.53-20.81a41.34,41.34,0,0,0-9.93-4,40.56,40.56,0,0,0-30.59,2.36c-15.62,8-20.47,29-19.28,36.52C216.16,212.6,226.62,223.18,230.31,221.87Z" style="fill:#263238"></path><path d="M243,197.43c14.38-5.64,22.81-19,18.91-34.28a.35.35,0,0,1,.65-.23c7.17,14.46-5.4,31.16-19.61,34.82C242.6,197.83,242.65,197.57,243,197.43Z" style="fill:#263238"></path><path d="M230.06,221c6.52-6.78,5.05-15.16,2.88-23.44-.06-.24.34-.39.43-.14,2.84,7.87,4.72,18.07-2.79,24.15A.39.39,0,0,1,230.06,221Z" style="fill:#263238"></path><path d="M261.72,161.72a.08.08,0,0,1,.15-.05c4.65,7.76,9.85,21.74,21.29,20.19a.23.23,0,0,1,.09.46C272.4,184.79,263.56,170.76,261.72,161.72Z" style="fill:#263238"></path><path d="M215.23,196.91l-1.77,3.78L226,209.51,229.8,201Zm9.82,8.74-8.65-5.37.39-.89,9.66,3.28Z" style="fill:#3254A0"></path><path d="M215.63,190.27l-.22,4.17,14.92,3.45.33-9.32Zm12.39,4.4L218,193l0-1,10.18-.6Z" style="fill:#3254A0"></path><path d="M232.05,220s-10.85-10.24-15.66-6.13,5.07,20.16,11.94,21.21a6.63,6.63,0,0,0,8-5.29Z" style="fill:#f7a9a0"></path><path d="M219.34,218.4a.09.09,0,0,0,0,.18c4.84.88,8.06,4.54,10.6,8.5-1.68-1.38-3.67-1.91-5.56.13-.1.11.05.26.17.21a4.07,4.07,0,0,1,4.68.49,19,19,0,0,1,2.83,3.11c.3.36,1,0,.73-.44l-.06-.09C231.66,224.76,225.58,217.71,219.34,218.4Z" style="fill:#263238"></path><path d="M294.19,211.88a20.18,20.18,0,0,1,.38,5.2,16.75,16.75,0,0,1-1,5.14c0-1.75.14-3.45.21-5.17S294,213.62,294.19,211.88Z" style="fill:#263238"></path></g><g id="freepik--question-marks--inject-81"><path d="M275.05,150.75a17,17,0,0,1,1.19-6.51,10.79,10.79,0,0,1,4.89-5c.74-.45,1.65-.95,2.74-1.52a23.13,23.13,0,0,0,3.19-2,11.77,11.77,0,0,0,2.63-2.78,6.43,6.43,0,0,0,1.07-3.66,6,6,0,0,0-.6-2.74,6.15,6.15,0,0,0-1.55-2,6.51,6.51,0,0,0-2.26-1.23,8.74,8.74,0,0,0-2.63-.4,7.61,7.61,0,0,0-3,.55,9.91,9.91,0,0,0-2.41,1.41,11.75,11.75,0,0,0-1.93,1.93,21,21,0,0,0-1.44,2l-6.45-4.44a14.74,14.74,0,0,1,2.56-4.08,15.86,15.86,0,0,1,3.63-3,17.22,17.22,0,0,1,4.41-1.85,19,19,0,0,1,4.89-.63,19.48,19.48,0,0,1,5.55.82,14.13,14.13,0,0,1,4.93,2.59,13.22,13.22,0,0,1,3.55,4.56,14.75,14.75,0,0,1,1.37,6.63,14.31,14.31,0,0,1-.55,4.18,11.72,11.72,0,0,1-1.59,3.3,13.71,13.71,0,0,1-2.45,2.66,27.14,27.14,0,0,1-3.18,2.3c-1,.59-2,1.16-3,1.7a17.79,17.79,0,0,0-2.71,1.82,8.84,8.84,0,0,0-2,2.29,6,6,0,0,0-.78,3.15ZM275.2,168V157.79h8.23V168Z" style="fill:#3254A0"></path><path d="M258.45,118.84a12.52,12.52,0,0,1-.88,4.83,8,8,0,0,1-3.62,3.74c-.55.33-1.23.7-2,1.13a16,16,0,0,0-2.37,1.51,8.88,8.88,0,0,0-2,2.06,4.73,4.73,0,0,0-.79,2.72,4.46,4.46,0,0,0,1.59,3.51,4.87,4.87,0,0,0,1.68.91,6.5,6.5,0,0,0,1.95.3,5.73,5.73,0,0,0,2.19-.41,7.73,7.73,0,0,0,1.79-1,8.73,8.73,0,0,0,1.43-1.42,16,16,0,0,0,1.07-1.52l4.78,3.3a10.66,10.66,0,0,1-1.9,3,11.54,11.54,0,0,1-2.69,2.23,12.64,12.64,0,0,1-3.27,1.37,14.2,14.2,0,0,1-7.74-.14A10.36,10.36,0,0,1,244,143a9.93,9.93,0,0,1-2.63-3.38,11,11,0,0,1-1-4.91,10.8,10.8,0,0,1,.41-3.11,8.76,8.76,0,0,1,1.18-2.44,10.06,10.06,0,0,1,1.82-2,19.65,19.65,0,0,1,2.36-1.7c.73-.44,1.46-.87,2.19-1.27a12.78,12.78,0,0,0,2-1.34,6.7,6.7,0,0,0,1.49-1.71,4.5,4.5,0,0,0,.57-2.33Zm-.11-12.8v7.58h-6.09V106Z" style="fill:#455a64"></path><path d="M334.54,199.44a12.56,12.56,0,0,1-.88,4.83A8,8,0,0,1,330,208c-.55.33-1.23.7-2,1.13a16.44,16.44,0,0,0-2.36,1.51,8.48,8.48,0,0,0-1.95,2.06,4.72,4.72,0,0,0-.8,2.71,4.44,4.44,0,0,0,.45,2,4.54,4.54,0,0,0,1.15,1.48,4.74,4.74,0,0,0,1.67.91,6.6,6.6,0,0,0,1.95.3,5.75,5.75,0,0,0,2.2-.41,7.73,7.73,0,0,0,1.79-1.05,9.14,9.14,0,0,0,1.43-1.42,18.08,18.08,0,0,0,1.07-1.52l4.78,3.3a10.66,10.66,0,0,1-1.9,3,11.75,11.75,0,0,1-2.69,2.23,12.78,12.78,0,0,1-3.27,1.37,14.12,14.12,0,0,1-3.63.47,14.53,14.53,0,0,1-4.12-.61,10.4,10.4,0,0,1-3.65-1.92,10,10,0,0,1-2.64-3.38,11.08,11.08,0,0,1-1-4.91,10.46,10.46,0,0,1,.41-3.11,8.76,8.76,0,0,1,1.18-2.44,10,10,0,0,1,1.81-2,20.64,20.64,0,0,1,2.37-1.7c.73-.44,1.46-.87,2.19-1.27a13.26,13.26,0,0,0,2-1.34,6.66,6.66,0,0,0,1.48-1.71,4.4,4.4,0,0,0,.58-2.33Zm-.11-12.8v7.58h-6.1v-7.58Z" style="fill:#455a64"></path><path d="M165.46,228.93a12.58,12.58,0,0,1,.88-4.84,8,8,0,0,1,3.62-3.73c.55-.33,1.23-.71,2-1.13a17.36,17.36,0,0,0,2.36-1.51,8.66,8.66,0,0,0,1.95-2.06,4.76,4.76,0,0,0,.8-2.72,4.37,4.37,0,0,0-.45-2,4.58,4.58,0,0,0-1.15-1.49,4.72,4.72,0,0,0-1.67-.9,6.62,6.62,0,0,0-2-.31,5.57,5.57,0,0,0-2.2.42,7.36,7.36,0,0,0-1.79,1,9.21,9.21,0,0,0-1.43,1.43,16.53,16.53,0,0,0-1.07,1.51l-4.78-3.3a10.8,10.8,0,0,1,1.9-3,11.46,11.46,0,0,1,2.69-2.22,12.81,12.81,0,0,1,3.27-1.38,14.11,14.11,0,0,1,3.63-.46,14.51,14.51,0,0,1,4.12.6,10.57,10.57,0,0,1,3.65,1.92,10,10,0,0,1,2.64,3.38,11.16,11.16,0,0,1,1,4.92,10.4,10.4,0,0,1-.41,3.1,8.82,8.82,0,0,1-1.18,2.45,10.24,10.24,0,0,1-1.81,2,20.67,20.67,0,0,1-2.37,1.71q-1.09.66-2.19,1.26a13.3,13.3,0,0,0-2,1.35,6.45,6.45,0,0,0-1.48,1.7,4.42,4.42,0,0,0-.58,2.34Zm.11,12.8v-7.59h6.1v7.59Z" style="fill:#3254A0"></path></g></svg>